<svg id="svg" version="1.1" xmlns="http://www.w3.org/2000/svg" xmlns:xlink="http://www.w3.org/1999/xlink" width="400" height="358.17694369973185" viewBox="0, 0, 400,358.17694369973185"><g id="svgg"><path id="path0" d="M224.373 49.439 C 222.303 49.565,220.155 49.864,219.600 50.103 C 219.045 50.342,217.734 50.538,216.687 50.538 C 215.640 50.538,214.204 50.780,213.496 51.075 C 212.788 51.371,211.680 51.619,211.033 51.626 C 210.386 51.633,209.453 51.869,208.961 52.151 C 208.468 52.432,207.491 52.668,206.789 52.675 C 206.087 52.682,205.200 52.925,204.818 53.214 C 204.435 53.504,203.824 53.746,203.460 53.752 C 202.876 53.762,201.697 54.273,200.000 55.250 C 199.704 55.421,199.220 55.655,198.925 55.772 C 194.146 57.652,190.459 60.319,184.534 66.182 L 179.284 71.379 176.111 71.220 C 174.367 71.133,172.511 70.944,171.987 70.800 C 171.179 70.578,170.821 70.760,169.610 72.008 C 167.548 74.132,165.155 73.838,159.000 70.704 C 157.599 69.990,155.726 69.292,154.839 69.153 C 153.236 68.902,151.795 68.456,149.540 67.516 C 148.892 67.246,147.360 67.024,146.135 67.023 C 144.860 67.022,143.468 66.792,142.880 66.485 C 142.137 66.098,140.674 65.950,137.582 65.950 C 134.596 65.950,132.923 65.788,132.024 65.412 C 130.471 64.763,127.195 64.704,126.585 65.314 C 126.298 65.602,124.319 65.822,120.868 65.951 C 117.741 66.068,115.273 66.327,114.809 66.587 C 114.378 66.828,113.516 67.025,112.892 67.025 C 112.269 67.025,111.331 67.246,110.808 67.516 C 110.285 67.787,108.889 68.286,107.706 68.627 C 106.523 68.967,105.026 69.472,104.379 69.748 C 103.731 70.025,103.037 70.251,102.836 70.251 C 102.185 70.251,99.125 71.743,98.385 72.420 C 97.990 72.782,96.699 73.586,95.518 74.207 C 93.131 75.460,84.351 83.824,83.114 86.022 C 82.312 87.448,81.063 89.299,79.873 90.829 C 77.917 93.342,72.909 104.080,72.002 107.706 C 71.805 108.495,71.491 109.293,71.306 109.480 C 71.120 109.668,70.967 110.151,70.966 110.556 C 70.964 110.960,70.722 111.752,70.428 112.317 C 70.133 112.882,69.891 113.849,69.890 114.467 C 69.889 115.086,69.647 116.053,69.353 116.618 C 69.058 117.183,68.811 118.473,68.805 119.485 C 68.798 120.498,68.561 121.729,68.280 122.222 C 67.972 122.761,67.762 124.137,67.755 125.672 C 67.748 127.076,67.500 128.911,67.204 129.749 C 66.416 131.982,66.416 152.002,67.204 153.887 C 67.500 154.595,67.742 156.047,67.742 157.113 C 67.742 158.180,67.984 159.631,68.280 160.339 C 68.575 161.047,68.820 162.236,68.824 162.981 C 68.828 163.727,69.312 165.700,69.900 167.366 C 70.487 169.032,70.968 170.685,70.968 171.040 C 70.968 171.949,73.326 179.020,74.384 181.282 C 74.871 182.323,75.269 183.371,75.269 183.612 C 75.269 183.853,75.753 185.073,76.344 186.323 C 76.936 187.572,77.420 188.782,77.422 189.011 C 77.423 189.239,77.650 189.859,77.925 190.388 C 78.201 190.917,78.535 191.841,78.667 192.442 C 78.799 193.042,79.620 194.944,80.493 196.668 C 81.365 198.392,82.079 200.031,82.079 200.310 C 82.079 200.590,82.805 202.331,83.692 204.179 C 84.579 206.027,85.305 207.710,85.305 207.920 C 85.305 208.129,85.940 209.699,86.718 211.408 C 88.143 214.543,89.321 217.380,90.837 221.326 C 91.292 222.509,92.249 224.708,92.964 226.213 C 93.680 227.718,94.266 229.170,94.267 229.439 C 94.267 229.708,94.751 230.896,95.341 232.079 C 95.930 233.262,96.414 234.527,96.414 234.891 C 96.415 235.255,96.637 235.981,96.907 236.504 C 97.533 237.717,101.686 250.305,102.144 252.377 C 102.334 253.238,102.677 254.830,102.907 255.914 C 103.136 256.998,103.544 258.394,103.812 259.015 C 104.528 260.669,104.487 275.078,103.763 276.344 C 103.482 276.837,103.245 277.538,103.239 277.903 C 103.232 278.267,102.998 279.074,102.719 279.695 C 102.440 280.316,102.034 281.401,101.816 282.106 C 101.348 283.617,95.125 290.129,93.405 290.906 C 92.794 291.183,92.052 291.550,91.756 291.722 C 91.138 292.083,89.273 292.888,87.455 293.579 C 85.495 294.324,77.370 294.444,76.024 293.747 C 75.431 293.441,74.473 293.190,73.894 293.190 C 71.696 293.190,67.411 290.568,63.651 286.921 C 57.920 281.363,56.040 282.490,59.273 289.544 C 60.161 291.480,60.994 293.492,61.125 294.015 C 61.441 295.272,63.899 300.074,65.382 302.330 C 69.059 307.923,69.360 308.334,71.192 310.251 C 72.153 311.257,73.587 312.485,74.378 312.980 C 75.169 313.476,76.036 314.145,76.304 314.467 C 76.571 314.790,76.973 315.054,77.196 315.054 C 77.418 315.054,78.395 315.618,79.365 316.308 C 80.336 316.998,81.384 317.563,81.694 317.564 C 82.004 317.565,83.226 318.048,84.409 318.638 C 85.591 319.228,87.124 319.717,87.814 319.725 C 88.504 319.732,89.471 319.969,89.964 320.251 C 91.312 321.022,111.197 321.020,112.675 320.249 C 113.240 319.954,114.264 319.713,114.950 319.713 C 115.636 319.713,116.626 319.490,117.149 319.217 C 117.672 318.944,119.310 318.354,120.789 317.906 C 123.708 317.021,129.796 314.038,131.011 312.896 C 131.426 312.506,131.952 312.186,132.179 312.186 C 132.406 312.186,133.121 311.725,133.769 311.161 C 134.416 310.597,135.430 309.883,136.022 309.575 C 137.301 308.909,151.613 294.593,151.613 293.980 C 151.613 293.747,152.419 292.665,153.405 291.577 C 154.391 290.489,155.197 289.422,155.197 289.207 C 155.197 288.991,155.923 288.008,156.810 287.021 C 157.697 286.034,158.423 285.022,158.423 284.772 C 158.423 284.522,158.660 284.121,158.949 283.881 C 159.238 283.641,160.058 282.401,160.772 281.125 C 161.485 279.849,162.944 277.528,164.013 275.966 C 165.987 273.084,168.913 267.584,169.342 265.950 C 169.472 265.457,169.952 264.247,170.409 263.262 C 171.458 261.001,172.760 256.991,172.760 256.022 C 172.760 255.617,173.002 254.706,173.297 253.998 C 173.593 253.290,173.835 252.081,173.835 251.310 C 173.835 250.539,174.077 249.329,174.373 248.622 C 174.668 247.914,174.910 246.314,174.910 245.065 C 174.910 243.727,175.094 242.612,175.358 242.348 C 176.102 241.606,176.198 215.181,175.464 213.424 C 175.130 212.624,174.910 211.015,174.908 209.365 C 174.907 207.641,174.708 206.252,174.371 205.604 C 174.076 205.040,173.834 203.830,173.833 202.916 C 173.832 202.002,173.590 200.792,173.295 200.228 C 173.001 199.663,172.760 198.489,172.760 197.618 C 172.760 196.747,172.518 195.455,172.222 194.748 C 171.927 194.040,171.685 193.134,171.685 192.734 C 171.685 192.093,169.588 185.240,168.809 183.333 C 168.647 182.939,168.149 181.487,167.702 180.108 C 167.254 178.728,166.435 176.618,165.881 175.420 C 165.328 174.221,164.875 173.039,164.875 172.792 C 164.875 172.545,160.842 164.260,155.914 154.380 C 150.986 144.501,146.953 136.143,146.953 135.808 C 146.953 135.473,146.470 134.224,145.878 133.032 C 145.287 131.840,144.803 130.603,144.803 130.283 C 144.803 129.964,144.616 129.353,144.388 128.928 C 144.160 128.502,143.852 127.665,143.703 127.069 C 143.554 126.473,143.234 125.421,142.991 124.731 C 142.749 124.041,142.352 122.912,142.110 122.222 C 140.875 118.705,140.498 117.268,140.500 116.083 C 140.501 115.368,140.260 114.204,139.964 113.496 C 139.547 112.497,139.427 110.596,139.427 104.990 L 139.427 97.771 140.568 95.629 C 141.905 93.120,144.817 90.389,147.024 89.574 C 147.872 89.261,149.131 88.782,149.821 88.510 C 154.101 86.823,157.868 88.400,158.457 92.125 C 158.808 94.348,159.473 95.189,161.124 95.499 C 163.232 95.894,165.024 97.923,164.704 99.549 C 164.558 100.290,164.320 101.783,164.176 102.867 C 164.031 103.952,163.726 105.293,163.498 105.848 C 162.820 107.494,162.926 129.757,163.620 131.417 C 163.916 132.125,164.157 133.289,164.156 134.004 C 164.154 135.189,164.531 136.626,165.766 140.143 C 166.008 140.833,166.405 141.962,166.647 142.652 C 166.890 143.342,167.211 144.391,167.361 144.982 C 167.740 146.471,170.777 152.431,172.060 154.202 C 172.642 155.006,173.118 155.881,173.118 156.147 C 173.118 156.413,173.280 156.631,173.477 156.631 C 173.674 156.631,173.835 156.821,173.835 157.053 C 173.835 157.697,176.310 161.253,178.164 163.272 C 179.075 164.264,180.232 165.716,180.736 166.498 C 181.855 168.236,186.979 173.251,189.427 175.003 C 190.412 175.709,191.774 176.864,192.454 177.570 C 193.133 178.276,193.874 178.853,194.101 178.853 C 194.327 178.853,194.981 179.259,195.554 179.755 C 196.616 180.676,210.063 187.449,211.996 188.037 C 213.039 188.354,213.402 188.866,214.382 191.398 C 215.229 193.587,215.028 203.637,214.086 206.140 C 213.148 208.633,210.535 213.786,209.475 215.233 C 209.042 215.824,208.302 217.034,207.830 217.921 C 207.358 218.808,206.169 220.718,205.189 222.164 C 204.208 223.610,203.244 225.043,203.047 225.347 C 202.849 225.650,201.370 227.854,199.758 230.243 C 194.858 237.509,190.307 246.853,189.612 251.075 C 189.449 252.061,189.140 253.321,188.924 253.876 C 187.890 256.528,188.568 266.302,189.891 267.832 C 191.082 269.209,196.756 268.307,201.039 266.060 C 201.906 265.605,202.874 265.232,203.190 265.232 C 203.505 265.231,204.731 264.748,205.914 264.158 C 207.097 263.568,208.548 263.084,209.140 263.082 C 209.731 263.080,210.677 262.837,211.242 262.543 C 211.806 262.248,212.855 262.001,213.571 261.994 C 214.288 261.987,215.278 261.751,215.771 261.470 C 217.111 260.703,233.526 260.702,234.995 261.467 C 235.588 261.776,236.978 262.004,238.285 262.005 C 239.530 262.006,240.872 262.180,241.266 262.391 C 241.660 262.602,242.739 262.915,243.662 263.086 C 246.498 263.612,248.282 264.133,256.452 266.827 C 264.819 269.585,266.295 270.147,271.685 272.628 C 273.557 273.489,275.285 274.194,275.523 274.194 C 276.153 274.193,288.158 280.195,289.427 281.145 C 290.018 281.588,291.255 282.310,292.175 282.749 C 293.096 283.189,294.052 283.793,294.300 284.092 C 294.548 284.391,295.226 284.881,295.807 285.181 C 296.758 285.673,298.847 287.218,302.021 289.775 C 303.389 290.878,303.947 290.909,304.788 289.927 C 307.077 287.253,305.999 285.518,295.441 274.874 C 290.621 270.016,286.354 265.496,285.957 264.830 C 285.560 264.165,284.598 262.960,283.818 262.154 C 283.038 261.347,281.884 259.950,281.254 259.048 C 279.108 255.979,277.959 254.438,276.597 252.806 C 275.850 251.909,274.694 250.095,274.029 248.775 C 273.364 247.455,272.603 246.194,272.337 245.973 C 271.443 245.232,268.793 239.088,268.050 236.036 C 267.860 235.255,267.522 234.396,267.298 234.126 C 266.571 233.250,266.746 213.399,267.495 211.750 C 267.828 211.017,268.100 210.006,268.100 209.502 C 268.100 206.254,275.044 197.217,278.026 196.585 C 278.579 196.468,279.562 196.140,280.209 195.856 C 281.872 195.128,292.266 195.145,293.548 195.878 C 295.136 196.786,307.818 196.626,309.642 195.675 C 312.424 194.225,313.249 191.874,313.256 185.371 C 313.262 180.359,313.323 180.184,316.009 177.430 C 318.491 174.884,318.360 174.219,315.054 172.581 C 311.470 170.805,311.327 169.257,314.595 167.602 C 316.800 166.485,316.796 164.311,314.587 163.466 C 313.242 162.952,312.449 161.744,312.276 159.949 C 312.051 157.608,312.848 156.925,317.424 155.530 C 319.142 155.007,322.222 151.563,322.222 150.166 C 322.222 148.682,321.068 147.113,319.031 145.830 C 314.496 142.971,307.885 134.654,307.885 131.806 C 307.885 131.504,307.401 130.281,306.810 129.089 C 306.077 127.612,305.731 126.373,305.722 125.199 C 305.715 124.252,305.479 123.073,305.197 122.581 C 304.444 121.263,304.471 113.959,305.236 111.955 C 305.766 110.568,305.766 110.352,305.236 109.289 C 304.919 108.654,304.659 107.634,304.657 107.024 C 304.656 106.413,304.414 105.452,304.120 104.887 C 303.825 104.323,303.580 103.597,303.575 103.274 C 303.563 102.458,301.095 97.581,299.907 96.023 C 299.367 95.315,298.925 94.610,298.925 94.456 C 298.925 94.303,297.957 93.143,296.774 91.878 L 294.624 89.580 294.624 83.851 L 294.624 78.123 292.802 74.492 C 291.750 72.396,290.261 70.089,289.280 69.033 C 288.345 68.027,287.216 66.598,286.770 65.857 C 286.324 65.116,285.271 64.107,284.430 63.614 C 283.589 63.121,282.610 62.396,282.255 62.004 C 281.900 61.611,281.405 61.290,281.155 61.290 C 280.905 61.290,280.200 60.870,279.589 60.355 C 278.192 59.180,273.892 56.996,272.939 56.978 C 272.545 56.970,271.819 56.733,271.326 56.452 C 270.833 56.170,270.006 55.934,269.488 55.927 C 268.970 55.920,268.346 55.672,268.100 55.376 C 267.855 55.081,267.230 54.833,266.712 54.826 C 266.194 54.819,265.367 54.583,264.875 54.301 C 264.382 54.019,263.575 53.778,263.082 53.765 C 262.590 53.751,261.873 53.504,261.491 53.214 C 261.108 52.925,260.221 52.682,259.519 52.675 C 258.818 52.668,257.841 52.432,257.348 52.151 C 256.855 51.869,255.786 51.633,254.973 51.626 C 254.160 51.619,252.809 51.371,251.971 51.075 C 251.133 50.780,249.425 50.538,248.175 50.538 C 246.926 50.538,245.212 50.312,244.367 50.036 C 242.569 49.448,230.252 49.081,224.373 49.439 " stroke="none" fill="#2e2e2d" fill-rule="evenodd"></path><path id="path1" d="M0.000 179.211 L 0.000 358.423 200.000 358.423 L 400.000 358.423 400.000 179.211 L 400.000 0.000 200.000 0.000 L 0.000 0.000 0.000 179.211 M244.679 48.566 C 245.401 48.868,247.052 49.104,248.442 49.104 C 249.833 49.104,251.483 49.340,252.206 49.642 C 252.914 49.937,254.123 50.179,254.894 50.179 C 255.665 50.179,256.874 50.421,257.582 50.717 C 258.290 51.013,259.344 51.254,259.924 51.254 C 260.504 51.254,261.328 51.441,261.753 51.669 C 262.179 51.897,263.016 52.211,263.612 52.366 C 273.193 54.864,285.011 60.866,287.502 64.499 C 287.969 65.180,289.208 66.712,290.255 67.904 C 291.407 69.215,292.930 71.626,294.108 74.005 L 296.057 77.938 296.057 83.365 C 296.057 89.393,295.946 89.057,299.010 92.277 C 299.752 93.055,300.358 93.867,300.358 94.080 C 300.358 94.294,300.721 94.918,301.165 95.468 C 302.240 96.801,304.659 101.401,304.662 102.118 C 304.663 102.432,304.883 103.108,305.151 103.621 C 305.418 104.134,305.755 105.344,305.899 106.309 C 306.043 107.275,306.322 108.261,306.519 108.500 C 306.730 108.757,306.782 109.789,306.645 111.009 C 306.165 115.272,306.045 121.195,306.429 121.658 C 306.639 121.910,306.914 123.148,307.042 124.409 C 307.169 125.671,307.632 127.456,308.071 128.377 C 308.510 129.298,308.973 130.468,309.101 130.977 C 310.099 134.953,315.364 142.001,318.919 144.119 C 325.591 148.095,324.883 154.043,317.403 156.856 C 312.789 158.591,312.508 159.600,315.771 162.724 C 318.780 165.606,318.628 166.756,314.901 169.300 C 313.901 169.982,314.360 171.326,315.593 171.326 C 315.829 171.326,316.691 171.811,317.509 172.404 C 319.877 174.119,319.697 175.787,316.846 178.551 L 314.695 180.636 314.695 185.187 C 314.695 192.524,313.805 194.927,310.421 196.731 L 308.323 197.849 301.563 197.834 C 296.613 197.822,294.419 197.680,293.369 197.301 C 291.321 196.563,282.195 196.569,280.776 197.310 C 280.211 197.604,279.382 197.846,278.934 197.847 C 276.364 197.854,269.988 206.214,269.378 210.376 C 269.249 211.254,268.950 212.206,268.712 212.493 C 268.130 213.194,268.118 233.022,268.699 233.742 C 268.916 234.010,269.207 234.764,269.347 235.418 C 269.487 236.072,269.827 237.040,270.103 237.569 C 270.379 238.098,270.606 238.811,270.607 239.154 C 270.609 239.826,273.202 244.969,273.992 245.870 C 274.255 246.170,274.892 247.257,275.407 248.284 C 275.921 249.312,276.867 250.749,277.508 251.477 C 278.149 252.206,278.996 253.321,279.391 253.955 C 279.785 254.590,280.548 255.653,281.087 256.318 C 282.300 257.814,283.999 259.993,286.510 263.270 C 288.652 266.066,289.621 267.117,298.996 276.809 C 307.822 285.934,308.798 288.003,305.639 290.898 C 303.656 292.715,303.640 292.710,298.444 288.710 C 293.180 284.657,279.529 276.949,275.627 275.827 C 275.134 275.685,273.360 274.945,271.685 274.182 C 267.249 272.163,264.433 271.036,260.394 269.665 C 258.423 268.995,256.487 268.311,256.093 268.145 C 255.097 267.724,248.551 265.719,246.595 265.235 C 245.708 265.016,244.014 264.595,242.832 264.299 C 241.649 264.003,239.391 263.608,237.814 263.421 C 236.237 263.234,234.646 262.908,234.280 262.696 C 233.535 262.265,217.509 262.135,216.831 262.554 C 216.609 262.691,215.513 263.016,214.396 263.275 C 213.279 263.534,211.378 263.975,210.171 264.256 C 208.963 264.537,207.270 265.089,206.407 265.483 C 198.063 269.290,191.899 270.761,189.552 269.506 C 187.295 268.297,185.973 256.789,187.634 252.812 C 187.930 252.104,188.173 251.182,188.175 250.763 C 188.186 247.209,196.268 231.854,202.442 223.656 C 202.813 223.163,203.323 222.357,203.574 221.864 C 203.826 221.371,204.312 220.645,204.655 220.251 C 204.997 219.857,205.887 218.405,206.631 217.025 C 207.376 215.645,208.104 214.435,208.249 214.337 C 208.769 213.983,212.242 206.696,212.919 204.535 C 214.613 199.134,213.422 189.916,210.932 189.150 C 208.500 188.401,196.457 182.257,194.803 180.921 C 194.606 180.762,193.621 180.030,192.614 179.294 C 186.644 174.934,182.017 170.650,179.299 166.966 C 178.475 165.850,177.388 164.491,176.884 163.947 C 176.380 163.403,175.613 162.381,175.181 161.676 C 174.749 160.971,174.097 160.072,173.733 159.677 C 173.369 159.283,172.665 158.154,172.170 157.168 C 171.675 156.183,170.903 154.892,170.455 154.301 C 168.133 151.238,162.724 137.188,162.724 134.220 C 162.724 133.523,162.482 132.373,162.186 131.665 C 161.431 129.857,161.388 106.575,162.137 105.090 C 163.856 101.683,163.070 97.399,160.638 96.913 C 158.936 96.572,157.348 94.781,157.348 93.202 C 157.348 90.955,155.779 89.277,153.663 89.259 C 149.213 89.221,143.324 92.906,141.487 96.876 C 140.757 98.456,140.534 112.076,141.228 112.769 C 141.431 112.972,141.681 114.012,141.785 115.081 C 141.951 116.789,143.638 122.913,144.492 124.910 C 144.661 125.305,145.192 126.848,145.672 128.340 C 146.153 129.833,146.960 131.959,147.466 133.066 C 147.973 134.174,148.387 135.280,148.387 135.526 C 148.387 135.941,151.262 141.833,162.063 163.554 C 164.398 168.249,166.308 172.250,166.308 172.445 C 166.308 172.640,166.640 173.556,167.045 174.482 C 168.318 177.392,168.395 177.582,168.588 178.315 C 168.692 178.710,169.125 180.000,169.549 181.183 C 169.974 182.366,170.454 183.817,170.617 184.409 C 170.779 185.000,171.311 186.613,171.799 187.993 C 172.286 189.373,172.792 191.264,172.923 192.196 C 173.053 193.128,173.299 193.976,173.469 194.081 C 173.640 194.187,173.892 195.360,174.030 196.688 C 174.168 198.017,174.417 199.276,174.585 199.486 C 174.752 199.696,174.992 200.825,175.118 201.995 C 175.244 203.165,175.571 204.813,175.846 205.658 C 176.120 206.502,176.347 208.196,176.349 209.421 C 176.352 210.646,176.587 212.294,176.871 213.082 C 177.625 215.174,177.658 240.214,176.910 242.197 C 176.629 242.940,176.327 244.729,176.239 246.173 C 176.150 247.616,175.896 248.979,175.673 249.201 C 175.451 249.424,175.265 250.178,175.260 250.878 C 175.256 251.578,175.084 252.796,174.879 253.584 C 174.674 254.373,174.287 255.905,174.020 256.989 C 173.315 259.844,172.608 261.911,171.546 264.224 C 171.031 265.345,170.609 266.451,170.609 266.681 C 170.609 267.481,167.123 274.038,164.662 277.866 C 161.556 282.698,160.194 284.854,159.459 286.100 C 159.141 286.638,158.366 287.687,157.736 288.431 C 156.159 290.295,154.355 292.672,152.900 294.803 C 151.428 296.960,137.605 310.635,135.872 311.649 C 133.609 312.973,132.311 313.820,131.655 314.399 C 129.714 316.116,117.477 321.126,115.187 321.142 C 114.768 321.145,113.845 321.389,113.138 321.685 C 111.310 322.448,91.727 322.474,89.703 321.716 C 88.959 321.437,87.787 321.131,87.097 321.036 C 86.407 320.940,84.955 320.461,83.871 319.971 C 82.787 319.481,81.496 318.963,81.004 318.818 C 77.909 317.913,69.506 311.167,67.334 307.844 C 66.869 307.131,65.854 305.599,65.080 304.439 C 63.252 301.701,61.553 298.454,59.851 294.444 C 59.097 292.670,57.966 290.022,57.337 288.560 C 54.202 281.266,58.088 279.736,64.411 285.774 C 74.494 295.403,87.469 295.417,96.947 285.808 L 100.179 282.531 101.523 278.396 L 102.867 274.261 102.867 267.406 C 102.867 262.123,102.744 260.255,102.330 259.264 C 102.034 258.556,101.793 257.634,101.794 257.214 C 101.795 256.795,101.567 255.726,101.288 254.839 C 101.008 253.952,100.597 252.500,100.373 251.613 C 100.150 250.726,99.804 249.355,99.604 248.566 C 99.405 247.778,99.090 246.979,98.904 246.792 C 98.718 246.605,98.565 246.121,98.564 245.717 C 98.563 245.313,98.321 244.520,98.026 243.955 C 97.732 243.391,97.490 242.665,97.489 242.343 C 97.488 242.020,97.246 241.294,96.951 240.730 C 96.657 240.165,96.415 239.439,96.414 239.117 C 96.412 238.794,96.170 238.068,95.876 237.504 C 95.581 236.939,95.340 236.213,95.339 235.891 C 95.338 235.568,94.855 234.337,94.265 233.154 C 93.675 231.971,93.190 230.842,93.187 230.645 C 93.184 230.448,92.602 228.996,91.895 227.419 C 90.585 224.500,89.133 220.952,87.607 216.946 C 87.140 215.719,86.211 213.622,85.543 212.286 C 84.875 210.950,84.119 209.211,83.864 208.423 C 83.608 207.634,82.779 205.707,82.022 204.141 C 81.265 202.574,80.645 201.079,80.645 200.817 C 80.645 200.556,80.023 199.096,79.263 197.573 C 78.503 196.049,77.360 193.286,76.724 191.431 C 76.087 189.576,75.176 187.208,74.700 186.167 C 74.225 185.127,73.835 183.975,73.835 183.607 C 73.835 183.240,73.670 182.774,73.469 182.572 C 73.080 182.184,71.100 176.938,70.626 175.042 C 70.472 174.425,70.234 173.739,70.097 173.518 C 69.961 173.297,69.714 172.351,69.549 171.415 C 69.248 169.703,68.781 168.201,67.874 166.027 C 67.604 165.380,67.384 164.150,67.384 163.293 C 67.384 162.437,67.142 161.157,66.846 160.450 C 66.550 159.742,66.308 158.291,66.308 157.225 C 66.308 156.159,66.066 154.602,65.771 153.763 C 64.983 151.530,64.983 131.511,65.771 129.625 C 66.087 128.869,66.313 127.189,66.321 125.549 C 66.329 123.810,66.526 122.423,66.846 121.864 C 67.128 121.371,67.370 120.161,67.384 119.176 C 67.397 118.190,67.639 116.980,67.921 116.487 C 68.203 115.995,68.440 115.027,68.448 114.337 C 68.456 113.647,68.704 112.620,68.999 112.056 C 69.293 111.491,69.534 110.710,69.534 110.319 C 69.534 109.928,69.758 109.181,70.031 108.657 C 70.304 108.134,70.898 106.496,71.351 105.018 C 74.691 94.120,87.302 76.546,94.265 73.088 C 95.152 72.647,96.362 71.933,96.953 71.501 C 101.217 68.387,112.851 64.945,120.430 64.556 C 123.091 64.420,125.621 64.113,126.052 63.875 C 127.140 63.271,130.835 63.332,132.382 63.978 C 133.275 64.352,134.959 64.518,137.892 64.522 C 140.654 64.525,142.611 64.706,143.548 65.043 C 144.337 65.328,145.763 65.567,146.717 65.576 C 147.671 65.584,149.848 66.062,151.555 66.637 C 153.263 67.212,155.260 67.783,155.995 67.906 C 156.730 68.029,158.244 68.610,159.360 69.197 C 164.921 72.122,167.483 72.446,169.028 70.420 C 170.217 68.861,170.889 68.669,172.810 69.338 C 173.670 69.637,175.318 69.884,176.473 69.887 L 178.574 69.892 183.642 64.938 C 190.952 57.791,199.581 52.664,206.631 51.276 C 207.419 51.121,208.519 50.811,209.074 50.587 C 209.628 50.363,210.596 50.173,211.224 50.167 C 211.852 50.160,212.769 49.923,213.262 49.642 C 213.754 49.360,215.125 49.116,216.308 49.100 C 217.491 49.085,218.943 48.850,219.534 48.579 C 221.183 47.824,242.877 47.813,244.679 48.566 " stroke="none" fill="#fbfbfb" fill-rule="evenodd"></path><path id="path2" d="M220.727 49.117 C 220.397 49.309,218.784 49.620,217.142 49.808 C 215.501 49.996,213.432 50.334,212.545 50.559 C 198.499 54.128,192.482 57.300,184.136 65.537 C 178.225 71.370,177.207 71.828,173.297 70.420 C 171.221 69.672,170.898 69.744,169.441 71.281 C 167.421 73.413,165.316 73.183,159.319 70.175 C 157.939 69.482,156.165 68.802,155.376 68.662 C 154.588 68.522,152.578 67.935,150.910 67.358 C 149.078 66.724,147.143 66.308,146.025 66.308 C 145.007 66.308,143.595 66.066,142.887 65.771 C 141.987 65.395,140.315 65.233,137.331 65.233 C 134.348 65.233,132.675 65.071,131.776 64.695 C 131.068 64.400,129.833 64.158,129.032 64.158 C 128.231 64.158,126.997 64.400,126.289 64.695 C 125.389 65.071,123.717 65.233,120.733 65.233 C 117.750 65.233,116.077 65.395,115.178 65.771 C 114.470 66.066,113.548 66.309,113.128 66.310 C 111.880 66.313,99.951 70.502,98.951 71.289 C 98.444 71.688,96.900 72.655,95.520 73.437 C 92.174 75.333,84.079 83.458,80.840 88.172 C 75.265 96.285,69.135 111.465,68.103 119.713 C 67.967 120.797,67.669 122.139,67.440 122.694 C 67.212 123.249,67.025 124.801,67.025 126.143 C 67.025 127.485,66.783 129.269,66.487 130.108 C 65.709 132.313,65.706 150.696,66.484 153.258 C 66.777 154.226,67.026 155.824,67.037 156.810 C 67.048 157.796,67.289 159.247,67.573 160.036 C 67.857 160.824,68.092 161.974,68.095 162.590 C 68.098 163.207,68.583 165.223,69.174 167.071 C 69.764 168.918,70.248 170.620,70.249 170.853 C 70.254 171.915,73.735 181.757,75.994 187.097 C 76.536 188.378,77.065 189.749,77.170 190.143 C 77.612 191.808,79.220 195.761,80.251 197.716 C 80.861 198.874,81.361 200.016,81.361 200.255 C 81.362 200.494,82.089 202.246,82.978 204.148 C 83.867 206.050,84.697 208.018,84.823 208.520 C 84.950 209.023,85.755 210.865,86.612 212.615 C 87.470 214.364,88.172 216.015,88.172 216.284 C 88.172 216.552,88.656 217.748,89.247 218.940 C 89.839 220.131,90.323 221.296,90.323 221.527 C 90.323 221.758,90.905 223.178,91.616 224.683 C 92.328 226.188,93.197 228.240,93.548 229.243 C 93.899 230.246,94.426 231.536,94.720 232.110 C 95.420 233.482,101.039 250.302,101.415 252.151 C 101.882 254.449,102.533 257.045,103.080 258.781 C 104.053 261.873,103.770 274.536,102.659 277.599 C 102.158 278.978,101.521 280.833,101.244 281.720 C 99.115 288.517,85.748 295.309,77.957 293.552 C 73.110 292.460,71.993 292.114,69.892 291.054 C 68.291 290.246,66.421 288.771,63.911 286.337 C 59.853 282.401,58.662 281.909,57.495 283.690 C 56.717 284.878,56.997 286.230,58.786 289.930 C 59.572 291.555,60.215 293.042,60.215 293.234 C 60.215 296.666,70.300 311.338,74.322 313.757 C 75.016 314.175,76.685 315.270,78.031 316.191 C 79.378 317.112,80.960 317.982,81.548 318.124 C 82.136 318.266,83.351 318.749,84.249 319.198 C 85.147 319.646,86.518 320.124,87.296 320.259 C 88.073 320.394,89.401 320.730,90.246 321.005 C 92.542 321.753,110.613 321.723,112.421 320.968 C 113.129 320.672,114.051 320.429,114.470 320.428 C 117.998 320.421,130.138 314.935,134.313 311.462 C 134.556 311.259,135.363 310.746,136.105 310.320 C 137.859 309.314,150.971 296.060,152.529 293.717 C 153.189 292.725,154.139 291.528,154.642 291.056 C 155.144 290.584,155.556 290.050,155.556 289.869 C 155.556 289.689,156.281 288.691,157.168 287.653 C 158.056 286.615,158.781 285.618,158.781 285.437 C 158.781 285.257,159.242 284.549,159.806 283.863 C 160.369 283.177,161.182 281.925,161.613 281.079 C 162.043 280.233,163.396 278.045,164.620 276.216 C 169.102 269.519,173.570 258.140,174.564 250.896 C 174.712 249.812,175.013 248.471,175.231 247.916 C 175.449 247.361,175.630 246.070,175.633 245.048 C 175.636 244.026,175.870 242.545,176.155 241.756 C 176.930 239.603,176.939 215.597,176.165 213.744 C 175.869 213.036,175.627 211.415,175.627 210.141 C 175.627 208.866,175.395 206.830,175.111 205.614 C 174.828 204.399,174.336 202.115,174.019 200.538 C 172.691 193.933,171.476 189.415,169.344 183.154 C 166.130 173.716,166.106 173.662,156.661 154.480 C 151.952 144.919,147.739 136.210,147.298 135.125 C 145.548 130.829,141.228 117.677,141.223 116.634 C 141.221 116.025,140.978 114.734,140.685 113.767 C 139.762 110.723,139.921 98.260,140.908 96.312 C 142.774 92.630,145.155 90.729,149.733 89.269 C 154.651 87.700,157.366 88.704,157.904 92.291 C 158.229 94.462,159.144 95.524,161.308 96.243 C 163.761 97.057,164.431 98.100,163.864 100.220 C 163.631 101.090,163.441 102.370,163.441 103.063 C 163.441 103.757,163.199 104.903,162.903 105.611 C 162.464 106.663,162.366 108.973,162.366 118.278 C 162.366 127.478,162.469 129.951,162.903 131.183 C 163.199 132.021,163.441 133.234,163.441 133.879 C 163.441 136.798,169.071 151.342,171.139 153.763 C 171.392 154.059,171.883 154.866,172.230 155.556 C 173.319 157.715,176.605 162.467,178.302 164.335 C 179.197 165.319,179.928 166.268,179.928 166.444 C 179.928 166.985,186.442 173.474,188.530 175.013 C 189.615 175.812,191.066 176.998,191.756 177.647 C 194.350 180.090,209.007 188.172,210.841 188.172 C 213.997 188.172,215.732 198.811,213.621 205.218 C 212.693 208.038,209.920 213.795,208.972 214.875 C 208.625 215.269,207.843 216.516,207.234 217.645 C 206.624 218.775,205.816 220.146,205.439 220.692 C 195.782 234.658,188.889 247.398,188.889 251.278 C 188.889 251.684,188.629 252.810,188.311 253.782 C 187.855 255.176,187.765 256.622,187.881 260.659 C 188.169 270.647,189.546 271.162,202.620 266.163 C 203.962 265.649,205.495 265.008,206.025 264.737 C 206.555 264.466,209.378 263.649,212.297 262.921 L 217.605 261.598 225.633 261.604 C 231.939 261.608,234.012 261.729,235.301 262.167 C 236.204 262.473,237.703 262.723,238.633 262.722 C 239.562 262.721,241.048 262.949,241.935 263.228 C 243.969 263.869,246.360 264.483,248.208 264.840 C 248.996 264.992,252.344 266.030,255.648 267.146 C 258.951 268.262,261.823 269.176,262.030 269.176 C 262.237 269.176,263.327 269.633,264.452 270.191 C 265.578 270.749,266.956 271.321,267.514 271.461 C 268.073 271.601,269.769 272.328,271.282 273.075 C 272.796 273.823,274.504 274.552,275.079 274.696 C 276.239 274.988,288.042 280.822,288.889 281.523 C 289.185 281.767,290.363 282.494,291.508 283.137 C 294.625 284.887,296.227 285.999,301.878 290.334 C 304.700 292.499,307.347 288.896,305.604 285.263 C 305.039 284.086,302.119 280.962,291.236 269.892 C 289.201 267.823,287.103 265.484,286.573 264.695 C 286.044 263.907,285.058 262.663,284.382 261.932 C 283.706 261.201,282.789 260.072,282.345 259.423 C 281.900 258.775,280.852 257.382,280.016 256.330 C 279.179 255.277,278.495 254.308,278.495 254.175 C 278.495 254.043,277.923 253.291,277.224 252.505 C 276.526 251.719,275.401 249.999,274.724 248.683 C 274.048 247.367,273.325 246.185,273.118 246.057 C 272.398 245.612,270.241 240.849,268.817 236.558 L 267.384 232.240 267.384 223.477 C 267.384 210.539,268.782 205.791,274.194 200.361 C 278.313 196.228,286.623 194.640,293.907 196.595 C 295.268 196.960,297.709 197.124,301.792 197.125 C 312.058 197.126,313.942 195.242,313.971 184.946 C 313.985 180.329,314.148 179.895,316.796 177.425 C 319.431 174.968,318.993 173.998,314.011 171.253 C 312.652 170.504,312.603 169.771,313.854 168.924 C 317.244 166.628,317.736 165.234,315.699 163.700 C 311.270 160.366,311.625 157.950,316.797 156.229 C 323.815 153.894,324.676 148.480,318.605 144.864 C 315.126 142.792,308.602 134.430,308.602 132.042 C 308.602 131.758,308.118 130.458,307.527 129.154 C 306.935 127.850,306.445 126.200,306.436 125.488 C 306.427 124.776,306.188 123.548,305.904 122.760 C 305.270 121.001,305.196 114.126,305.790 112.144 C 306.996 108.117,302.498 97.379,297.154 91.533 L 295.401 89.614 295.276 83.606 L 295.151 77.599 293.470 74.322 C 292.545 72.521,290.956 70.101,289.938 68.946 C 288.920 67.791,287.713 66.259,287.254 65.541 C 286.795 64.823,285.726 63.764,284.877 63.187 C 284.028 62.611,282.231 61.381,280.885 60.455 C 277.196 57.920,275.057 56.986,267.025 54.407 C 257.465 51.337,255.898 50.896,254.551 50.896 C 253.934 50.896,252.739 50.671,251.894 50.396 C 251.050 50.120,248.973 49.817,247.279 49.722 C 245.586 49.627,243.863 49.368,243.450 49.147 C 242.491 48.634,221.602 48.606,220.727 49.117 M244.367 50.036 C 245.212 50.312,246.926 50.538,248.175 50.538 C 249.425 50.538,251.133 50.780,251.971 51.075 C 252.809 51.371,254.160 51.619,254.973 51.626 C 255.786 51.633,256.855 51.869,257.348 52.151 C 257.841 52.432,258.818 52.668,259.519 52.675 C 260.221 52.682,261.108 52.925,261.491 53.214 C 261.873 53.504,262.590 53.751,263.082 53.765 C 263.575 53.778,264.382 54.019,264.875 54.301 C 265.367 54.583,266.194 54.819,266.712 54.826 C 267.230 54.833,267.855 55.081,268.100 55.376 C 268.346 55.672,268.970 55.920,269.488 55.927 C 270.006 55.934,270.833 56.170,271.326 56.452 C 271.819 56.733,272.545 56.970,272.939 56.978 C 273.892 56.996,278.192 59.180,279.589 60.355 C 280.200 60.870,280.905 61.290,281.155 61.290 C 281.405 61.290,281.900 61.611,282.255 62.004 C 282.610 62.396,283.589 63.121,284.430 63.614 C 285.271 64.107,286.324 65.116,286.770 65.857 C 287.216 66.598,288.345 68.027,289.280 69.033 C 290.261 70.089,291.750 72.396,292.802 74.492 L 294.624 78.123 294.624 83.851 L 294.624 89.580 296.774 91.878 C 297.957 93.143,298.925 94.303,298.925 94.456 C 298.925 94.610,299.367 95.315,299.907 96.023 C 301.095 97.581,303.563 102.458,303.575 103.274 C 303.580 103.597,303.825 104.323,304.120 104.887 C 304.414 105.452,304.656 106.413,304.657 107.024 C 304.659 107.634,304.919 108.654,305.236 109.289 C 305.766 110.352,305.766 110.568,305.236 111.955 C 304.471 113.959,304.444 121.263,305.197 122.581 C 305.479 123.073,305.715 124.252,305.722 125.199 C 305.731 126.373,306.077 127.612,306.810 129.089 C 307.401 130.281,307.885 131.504,307.885 131.806 C 307.885 134.654,314.496 142.971,319.031 145.830 C 321.068 147.113,322.222 148.682,322.222 150.166 C 322.222 151.563,319.142 155.007,317.424 155.530 C 312.848 156.925,312.051 157.608,312.276 159.949 C 312.449 161.744,313.242 162.952,314.587 163.466 C 316.796 164.311,316.800 166.485,314.595 167.602 C 311.327 169.257,311.470 170.805,315.054 172.581 C 318.360 174.219,318.491 174.884,316.009 177.430 C 313.323 180.184,313.262 180.359,313.256 185.371 C 313.249 191.874,312.424 194.225,309.642 195.675 C 307.818 196.626,295.136 196.786,293.548 195.878 C 292.266 195.145,281.872 195.128,280.209 195.856 C 279.562 196.140,278.579 196.468,278.026 196.585 C 275.044 197.217,268.100 206.254,268.100 209.502 C 268.100 210.006,267.828 211.017,267.495 211.750 C 266.746 213.399,266.571 233.250,267.298 234.126 C 267.522 234.396,267.860 235.255,268.050 236.036 C 268.793 239.088,271.443 245.232,272.337 245.973 C 272.603 246.194,273.364 247.455,274.029 248.775 C 274.694 250.095,275.850 251.909,276.597 252.806 C 277.959 254.438,279.108 255.979,281.254 259.048 C 281.884 259.950,283.038 261.347,283.818 262.154 C 284.598 262.960,285.560 264.165,285.957 264.830 C 286.354 265.496,290.621 270.016,295.441 274.874 C 305.999 285.518,307.077 287.253,304.788 289.927 C 303.947 290.909,303.389 290.878,302.021 289.775 C 298.847 287.218,296.758 285.673,295.807 285.181 C 295.226 284.881,294.548 284.391,294.300 284.092 C 294.052 283.793,293.096 283.189,292.175 282.749 C 291.255 282.310,290.018 281.588,289.427 281.145 C 288.158 280.195,276.153 274.193,275.523 274.194 C 275.285 274.194,273.557 273.489,271.685 272.628 C 266.295 270.147,264.819 269.585,256.452 266.827 C 248.282 264.133,246.498 263.612,243.662 263.086 C 242.739 262.915,241.660 262.602,241.266 262.391 C 240.872 262.180,239.530 262.006,238.285 262.005 C 236.978 262.004,235.588 261.776,234.995 261.467 C 233.526 260.702,217.111 260.703,215.771 261.470 C 215.278 261.751,214.288 261.987,213.571 261.994 C 212.855 262.001,211.806 262.248,211.242 262.543 C 210.677 262.837,209.731 263.080,209.140 263.082 C 208.548 263.084,207.097 263.568,205.914 264.158 C 204.731 264.748,203.505 265.231,203.190 265.232 C 202.874 265.232,201.906 265.605,201.039 266.060 C 196.756 268.307,191.082 269.209,189.891 267.832 C 188.568 266.302,187.890 256.528,188.924 253.876 C 189.140 253.321,189.449 252.061,189.612 251.075 C 190.307 246.853,194.858 237.509,199.758 230.243 C 201.370 227.854,202.849 225.650,203.047 225.347 C 203.244 225.043,204.208 223.610,205.189 222.164 C 206.169 220.718,207.358 218.808,207.830 217.921 C 208.302 217.034,209.042 215.824,209.475 215.233 C 210.535 213.786,213.148 208.633,214.086 206.140 C 216.142 200.675,214.781 188.884,211.996 188.037 C 210.063 187.449,196.616 180.676,195.554 179.755 C 194.981 179.259,194.327 178.853,194.101 178.853 C 193.874 178.853,193.133 178.276,192.454 177.570 C 191.774 176.864,190.412 175.709,189.427 175.003 C 186.979 173.251,181.855 168.236,180.736 166.498 C 180.232 165.716,179.075 164.264,178.164 163.272 C 176.310 161.253,173.835 157.697,173.835 157.053 C 173.835 156.821,173.674 156.631,173.477 156.631 C 173.280 156.631,173.118 156.413,173.118 156.147 C 173.118 155.881,172.642 155.006,172.060 154.202 C 170.777 152.431,167.740 146.471,167.361 144.982 C 167.211 144.391,166.890 143.342,166.647 142.652 C 166.405 141.962,166.008 140.833,165.766 140.143 C 164.531 136.626,164.154 135.189,164.156 134.004 C 164.157 133.289,163.916 132.125,163.620 131.417 C 162.926 129.757,162.820 107.494,163.498 105.848 C 163.726 105.293,164.031 103.952,164.176 102.867 C 164.320 101.783,164.558 100.290,164.704 99.549 C 165.024 97.923,163.232 95.894,161.124 95.499 C 159.473 95.189,158.808 94.348,158.457 92.125 C 157.868 88.400,154.101 86.823,149.821 88.510 C 149.131 88.782,147.872 89.261,147.024 89.574 C 144.817 90.389,141.905 93.120,140.568 95.629 L 139.427 97.771 139.427 104.990 C 139.427 110.596,139.547 112.497,139.964 113.496 C 140.260 114.204,140.501 115.368,140.500 116.083 C 140.498 117.268,140.875 118.705,142.110 122.222 C 142.352 122.912,142.749 124.041,142.991 124.731 C 143.234 125.421,143.554 126.473,143.703 127.069 C 143.852 127.665,144.160 128.502,144.388 128.928 C 144.616 129.353,144.803 129.964,144.803 130.283 C 144.803 130.603,145.287 131.840,145.878 133.032 C 146.470 134.224,146.953 135.473,146.953 135.808 C 146.953 136.143,150.986 144.501,155.914 154.380 C 160.842 164.260,164.875 172.545,164.875 172.792 C 164.875 173.039,165.328 174.221,165.881 175.420 C 166.435 176.618,167.254 178.728,167.702 180.108 C 168.149 181.487,168.647 182.939,168.809 183.333 C 169.588 185.240,171.685 192.093,171.685 192.734 C 171.685 193.134,171.927 194.040,172.222 194.748 C 172.518 195.455,172.760 196.747,172.760 197.618 C 172.760 198.489,173.001 199.663,173.295 200.228 C 173.590 200.792,173.832 202.002,173.833 202.916 C 173.834 203.830,174.076 205.040,174.371 205.604 C 174.708 206.252,174.907 207.641,174.908 209.365 C 174.910 211.015,175.130 212.624,175.464 213.424 C 176.198 215.181,176.102 241.606,175.358 242.348 C 175.094 242.612,174.910 243.727,174.910 245.065 C 174.910 246.314,174.668 247.914,174.373 248.622 C 174.077 249.329,173.835 250.539,173.835 251.310 C 173.835 252.081,173.593 253.290,173.297 253.998 C 173.002 254.706,172.760 255.617,172.760 256.022 C 172.760 256.991,171.458 261.001,170.409 263.262 C 169.952 264.247,169.472 265.457,169.342 265.950 C 168.913 267.584,165.987 273.084,164.013 275.966 C 162.944 277.528,161.485 279.849,160.772 281.125 C 160.058 282.401,159.238 283.641,158.949 283.881 C 158.660 284.121,158.423 284.522,158.423 284.772 C 158.423 285.022,157.697 286.034,156.810 287.021 C 155.923 288.008,155.197 288.991,155.197 289.207 C 155.197 289.422,154.391 290.489,153.405 291.577 C 152.419 292.665,151.613 293.747,151.613 293.980 C 151.613 294.593,137.301 308.909,136.022 309.575 C 135.430 309.883,134.416 310.597,133.769 311.161 C 133.121 311.725,132.406 312.186,132.179 312.186 C 131.952 312.186,131.426 312.506,131.011 312.896 C 129.796 314.038,123.708 317.021,120.789 317.906 C 119.310 318.354,117.672 318.944,117.149 319.217 C 116.626 319.490,115.636 319.713,114.950 319.713 C 114.264 319.713,113.240 319.954,112.675 320.249 C 111.197 321.020,91.312 321.022,89.964 320.251 C 89.471 319.969,88.504 319.732,87.814 319.725 C 87.124 319.717,85.591 319.228,84.409 318.638 C 83.226 318.048,82.004 317.565,81.694 317.564 C 81.384 317.563,80.336 316.998,79.365 316.308 C 78.395 315.618,77.418 315.054,77.196 315.054 C 76.973 315.054,76.571 314.790,76.304 314.467 C 76.036 314.145,75.169 313.476,74.378 312.980 C 73.587 312.485,72.153 311.257,71.192 310.251 C 69.360 308.334,69.059 307.923,65.382 302.330 C 63.899 300.074,61.441 295.272,61.125 294.015 C 60.994 293.492,60.161 291.480,59.273 289.544 C 56.040 282.490,57.920 281.363,63.651 286.921 C 67.411 290.568,71.696 293.190,73.894 293.190 C 74.473 293.190,75.431 293.441,76.024 293.747 C 77.370 294.444,85.495 294.324,87.455 293.579 C 89.273 292.888,91.138 292.083,91.756 291.722 C 92.052 291.550,92.794 291.183,93.405 290.906 C 95.125 290.129,101.348 283.617,101.816 282.106 C 102.034 281.401,102.440 280.316,102.719 279.695 C 102.998 279.074,103.232 278.267,103.239 277.903 C 103.245 277.538,103.482 276.837,103.763 276.344 C 104.487 275.078,104.528 260.669,103.812 259.015 C 103.544 258.394,103.136 256.998,102.907 255.914 C 102.677 254.830,102.334 253.238,102.144 252.377 C 101.686 250.305,97.533 237.717,96.907 236.504 C 96.637 235.981,96.415 235.255,96.414 234.891 C 96.414 234.527,95.930 233.262,95.341 232.079 C 94.751 230.896,94.267 229.708,94.267 229.439 C 94.266 229.170,93.680 227.718,92.964 226.213 C 92.249 224.708,91.292 222.509,90.837 221.326 C 89.321 217.380,88.143 214.543,86.718 211.408 C 85.940 209.699,85.305 208.129,85.305 207.920 C 85.305 207.710,84.579 206.027,83.692 204.179 C 82.805 202.331,82.079 200.590,82.079 200.310 C 82.079 200.031,81.365 198.392,80.493 196.668 C 79.620 194.944,78.799 193.042,78.667 192.442 C 78.535 191.841,78.201 190.917,77.925 190.388 C 77.650 189.859,77.423 189.239,77.422 189.011 C 77.420 188.782,76.936 187.572,76.344 186.323 C 75.753 185.073,75.269 183.853,75.269 183.612 C 75.269 183.371,74.871 182.323,74.384 181.282 C 73.326 179.020,70.968 171.949,70.968 171.040 C 70.968 170.685,70.487 169.032,69.900 167.366 C 69.312 165.700,68.828 163.727,68.824 162.981 C 68.820 162.236,68.575 161.047,68.280 160.339 C 67.984 159.631,67.742 158.180,67.742 157.113 C 67.742 156.047,67.500 154.595,67.204 153.887 C 66.416 152.002,66.416 131.982,67.204 129.749 C 67.500 128.911,67.748 127.076,67.755 125.672 C 67.762 124.137,67.972 122.761,68.280 122.222 C 68.561 121.729,68.798 120.498,68.805 119.485 C 68.811 118.473,69.058 117.183,69.353 116.618 C 69.647 116.053,69.889 115.086,69.890 114.467 C 69.891 113.849,70.133 112.882,70.428 112.317 C 70.722 111.752,70.964 110.960,70.966 110.556 C 70.967 110.151,71.120 109.668,71.306 109.480 C 71.491 109.293,71.805 108.495,72.002 107.706 C 72.909 104.080,77.917 93.342,79.873 90.829 C 81.063 89.299,82.312 87.448,83.114 86.022 C 84.351 83.824,93.131 75.460,95.518 74.207 C 96.699 73.586,97.990 72.782,98.385 72.420 C 99.125 71.743,102.185 70.251,102.836 70.251 C 103.037 70.251,103.731 70.025,104.379 69.748 C 105.026 69.472,106.523 68.967,107.706 68.627 C 108.889 68.286,110.285 67.787,110.808 67.516 C 111.331 67.246,112.269 67.025,112.892 67.025 C 113.516 67.025,114.378 66.828,114.809 66.587 C 115.273 66.327,117.741 66.068,120.868 65.951 C 124.319 65.822,126.298 65.602,126.585 65.314 C 127.195 64.704,130.471 64.763,132.024 65.412 C 132.923 65.788,134.596 65.950,137.582 65.950 C 140.674 65.950,142.137 66.098,142.880 66.485 C 143.468 66.792,144.860 67.022,146.135 67.023 C 147.360 67.024,148.892 67.246,149.540 67.516 C 151.795 68.456,153.236 68.902,154.839 69.153 C 155.726 69.292,157.599 69.990,159.000 70.704 C 165.155 73.838,167.548 74.132,169.610 72.008 C 170.821 70.760,171.179 70.578,171.987 70.800 C 172.511 70.944,174.367 71.133,176.111 71.220 L 179.284 71.379 184.534 66.182 C 190.459 60.319,194.146 57.652,198.925 55.772 C 199.220 55.655,199.704 55.421,200.000 55.250 C 201.697 54.273,202.876 53.762,203.460 53.752 C 203.824 53.746,204.435 53.504,204.818 53.214 C 205.200 52.925,206.087 52.682,206.789 52.675 C 207.491 52.668,208.468 52.432,208.961 52.151 C 209.453 51.869,210.386 51.633,211.033 51.626 C 211.680 51.619,212.788 51.371,213.496 51.075 C 214.204 50.780,215.640 50.538,216.687 50.538 C 217.734 50.538,219.045 50.342,219.600 50.103 C 221.971 49.081,241.285 49.029,244.367 50.036 " stroke="none" fill="#8c8c8c" fill-rule="evenodd"></path><path id="path3" d="M219.534 48.579 C 218.943 48.850,217.491 49.085,216.308 49.100 C 215.125 49.116,213.754 49.360,213.262 49.642 C 212.769 49.923,211.852 50.160,211.224 50.167 C 210.596 50.173,209.628 50.363,209.074 50.587 C 208.519 50.811,207.419 51.121,206.631 51.276 C 199.581 52.664,190.952 57.791,183.642 64.938 L 178.574 69.892 176.473 69.887 C 175.318 69.884,173.670 69.637,172.810 69.338 C 170.889 68.669,170.217 68.861,169.028 70.420 C 167.483 72.446,164.921 72.122,159.360 69.197 C 158.244 68.610,156.730 68.029,155.995 67.906 C 155.260 67.783,153.263 67.212,151.555 66.637 C 149.848 66.062,147.671 65.584,146.717 65.576 C 145.763 65.567,144.337 65.328,143.548 65.043 C 142.611 64.706,140.654 64.525,137.892 64.522 C 134.959 64.518,133.275 64.352,132.382 63.978 C 130.835 63.332,127.140 63.271,126.052 63.875 C 125.621 64.113,123.091 64.420,120.430 64.556 C 112.851 64.945,101.217 68.387,96.953 71.501 C 96.362 71.933,95.152 72.647,94.265 73.088 C 87.302 76.546,74.691 94.120,71.351 105.018 C 70.898 106.496,70.304 108.134,70.031 108.657 C 69.758 109.181,69.534 109.928,69.534 110.319 C 69.534 110.710,69.293 111.491,68.999 112.056 C 68.704 112.620,68.456 113.647,68.448 114.337 C 68.440 115.027,68.203 115.995,67.921 116.487 C 67.639 116.980,67.397 118.190,67.384 119.176 C 67.370 120.161,67.128 121.371,66.846 121.864 C 66.526 122.423,66.329 123.810,66.321 125.549 C 66.313 127.189,66.087 128.869,65.771 129.625 C 64.983 131.511,64.983 151.530,65.771 153.763 C 66.066 154.602,66.308 156.159,66.308 157.225 C 66.308 158.291,66.550 159.742,66.846 160.450 C 67.142 161.157,67.384 162.437,67.384 163.293 C 67.384 164.150,67.604 165.380,67.874 166.027 C 68.781 168.201,69.248 169.703,69.549 171.415 C 69.714 172.351,69.961 173.297,70.097 173.518 C 70.234 173.739,70.472 174.425,70.626 175.042 C 71.100 176.938,73.080 182.184,73.469 182.572 C 73.670 182.774,73.835 183.240,73.835 183.607 C 73.835 183.975,74.225 185.127,74.700 186.167 C 75.176 187.208,76.087 189.576,76.724 191.431 C 77.360 193.286,78.503 196.049,79.263 197.573 C 80.023 199.096,80.645 200.556,80.645 200.817 C 80.645 201.079,81.265 202.574,82.022 204.141 C 82.779 205.707,83.608 207.634,83.864 208.423 C 84.119 209.211,84.875 210.950,85.543 212.286 C 86.211 213.622,87.140 215.719,87.607 216.946 C 89.133 220.952,90.585 224.500,91.895 227.419 C 92.602 228.996,93.184 230.448,93.187 230.645 C 93.190 230.842,93.675 231.971,94.265 233.154 C 94.855 234.337,95.338 235.568,95.339 235.891 C 95.340 236.213,95.581 236.939,95.876 237.504 C 96.170 238.068,96.412 238.794,96.414 239.117 C 96.415 239.439,96.657 240.165,96.951 240.730 C 97.246 241.294,97.488 242.020,97.489 242.343 C 97.490 242.665,97.732 243.391,98.026 243.955 C 98.321 244.520,98.563 245.313,98.564 245.717 C 98.565 246.121,98.718 246.605,98.904 246.792 C 99.090 246.979,99.405 247.778,99.604 248.566 C 99.804 249.355,100.150 250.726,100.373 251.613 C 100.597 252.500,101.008 253.952,101.288 254.839 C 101.567 255.726,101.795 256.795,101.794 257.214 C 101.793 257.634,102.034 258.556,102.330 259.264 C 102.744 260.255,102.867 262.123,102.867 267.406 L 102.867 274.261 101.523 278.396 L 100.179 282.531 96.947 285.808 C 87.469 295.417,74.494 295.403,64.411 285.774 C 58.088 279.736,54.202 281.266,57.337 288.560 C 57.966 290.022,59.097 292.670,59.851 294.444 C 61.553 298.454,63.252 301.701,65.080 304.439 C 65.854 305.599,66.869 307.131,67.334 307.844 C 69.506 311.167,77.909 317.913,81.004 318.818 C 81.496 318.963,82.787 319.481,83.871 319.971 C 84.955 320.461,86.407 320.940,87.097 321.036 C 87.787 321.131,88.959 321.437,89.703 321.716 C 91.727 322.474,111.310 322.448,113.138 321.685 C 113.845 321.389,114.768 321.145,115.187 321.142 C 117.477 321.126,129.714 316.116,131.655 314.399 C 132.311 313.820,133.609 312.973,135.872 311.649 C 137.605 310.635,151.428 296.960,152.900 294.803 C 154.355 292.672,156.159 290.295,157.736 288.431 C 158.366 287.687,159.141 286.638,159.459 286.100 C 160.194 284.854,161.556 282.698,164.662 277.866 C 167.123 274.038,170.609 267.481,170.609 266.681 C 170.609 266.451,171.031 265.345,171.546 264.224 C 172.608 261.911,173.315 259.844,174.020 256.989 C 174.287 255.905,174.674 254.373,174.879 253.584 C 175.084 252.796,175.256 251.578,175.260 250.878 C 175.265 250.178,175.451 249.424,175.673 249.201 C 175.896 248.979,176.150 247.616,176.239 246.173 C 176.327 244.729,176.629 242.940,176.910 242.197 C 177.658 240.214,177.625 215.174,176.871 213.082 C 176.587 212.294,176.352 210.646,176.349 209.421 C 176.347 208.196,176.120 206.502,175.846 205.658 C 175.571 204.813,175.244 203.165,175.118 201.995 C 174.992 200.825,174.752 199.696,174.585 199.486 C 174.417 199.276,174.168 198.017,174.030 196.688 C 173.892 195.360,173.640 194.187,173.469 194.081 C 173.299 193.976,173.053 193.128,172.923 192.196 C 172.792 191.264,172.286 189.373,171.799 187.993 C 171.311 186.613,170.779 185.000,170.617 184.409 C 170.454 183.817,169.974 182.366,169.549 181.183 C 169.125 180.000,168.692 178.710,168.588 178.315 C 168.395 177.582,168.318 177.392,167.045 174.482 C 166.640 173.556,166.308 172.640,166.308 172.445 C 166.308 172.250,164.398 168.249,162.063 163.554 C 151.262 141.833,148.387 135.941,148.387 135.526 C 148.387 135.280,147.973 134.174,147.466 133.066 C 146.960 131.959,146.153 129.833,145.672 128.340 C 145.192 126.848,144.661 125.305,144.492 124.910 C 143.638 122.913,141.951 116.789,141.785 115.081 C 141.681 114.012,141.431 112.972,141.228 112.769 C 140.534 112.076,140.757 98.456,141.487 96.876 C 143.324 92.906,149.213 89.221,153.663 89.259 C 155.779 89.277,157.348 90.955,157.348 93.202 C 157.348 94.781,158.936 96.572,160.638 96.913 C 163.070 97.399,163.856 101.683,162.137 105.090 C 161.388 106.575,161.431 129.857,162.186 131.665 C 162.482 132.373,162.724 133.523,162.724 134.220 C 162.724 137.188,168.133 151.238,170.455 154.301 C 170.903 154.892,171.675 156.183,172.170 157.168 C 172.665 158.154,173.369 159.283,173.733 159.677 C 174.097 160.072,174.749 160.971,175.181 161.676 C 175.613 162.381,176.380 163.403,176.884 163.947 C 177.388 164.491,178.475 165.850,179.299 166.966 C 182.017 170.650,186.644 174.934,192.614 179.294 C 193.621 180.030,194.606 180.762,194.803 180.921 C 196.457 182.257,208.500 188.401,210.932 189.150 C 213.422 189.916,214.613 199.134,212.919 204.535 C 212.242 206.696,208.769 213.983,208.249 214.337 C 208.104 214.435,207.376 215.645,206.631 217.025 C 205.887 218.405,204.997 219.857,204.655 220.251 C 204.312 220.645,203.826 221.371,203.574 221.864 C 203.323 222.357,202.813 223.163,202.442 223.656 C 196.268 231.854,188.186 247.209,188.175 250.763 C 188.173 251.182,187.930 252.104,187.634 252.812 C 185.973 256.789,187.295 268.297,189.552 269.506 C 191.899 270.761,198.063 269.290,206.407 265.483 C 207.270 265.089,208.963 264.537,210.171 264.256 C 211.378 263.975,213.279 263.534,214.396 263.275 C 215.513 263.016,216.609 262.691,216.831 262.554 C 217.509 262.135,233.535 262.265,234.280 262.696 C 234.646 262.908,236.237 263.234,237.814 263.421 C 239.391 263.608,241.649 264.003,242.832 264.299 C 244.014 264.595,245.708 265.016,246.595 265.235 C 248.551 265.719,255.097 267.724,256.093 268.145 C 256.487 268.311,258.423 268.995,260.394 269.665 C 264.433 271.036,267.249 272.163,271.685 274.182 C 273.360 274.945,275.134 275.685,275.627 275.827 C 279.529 276.949,293.180 284.657,298.444 288.710 C 303.640 292.710,303.656 292.715,305.639 290.898 C 308.798 288.003,307.822 285.934,298.996 276.809 C 289.621 267.117,288.652 266.066,286.510 263.270 C 283.999 259.993,282.300 257.814,281.087 256.318 C 280.548 255.653,279.785 254.590,279.391 253.955 C 278.996 253.321,278.149 252.206,277.508 251.477 C 276.867 250.749,275.921 249.312,275.407 248.284 C 274.892 247.257,274.255 246.170,273.992 245.870 C 273.202 244.969,270.609 239.826,270.607 239.154 C 270.606 238.811,270.379 238.098,270.103 237.569 C 269.827 237.040,269.487 236.072,269.347 235.418 C 269.207 234.764,268.916 234.010,268.699 233.742 C 268.118 233.022,268.130 213.194,268.712 212.493 C 268.950 212.206,269.249 211.254,269.378 210.376 C 269.988 206.214,276.364 197.854,278.934 197.847 C 279.382 197.846,280.211 197.604,280.776 197.310 C 282.195 196.569,291.321 196.563,293.369 197.301 C 294.419 197.680,296.613 197.822,301.563 197.834 L 308.323 197.849 310.421 196.731 C 313.805 194.927,314.695 192.524,314.695 185.187 L 314.695 180.636 316.846 178.551 C 319.697 175.787,319.877 174.119,317.509 172.404 C 316.691 171.811,315.829 171.326,315.593 171.326 C 314.360 171.326,313.901 169.982,314.901 169.300 C 318.628 166.756,318.780 165.606,315.771 162.724 C 312.508 159.600,312.789 158.591,317.403 156.856 C 324.883 154.043,325.591 148.095,318.919 144.119 C 315.364 142.001,310.099 134.953,309.101 130.977 C 308.973 130.468,308.510 129.298,308.071 128.377 C 307.632 127.456,307.169 125.671,307.042 124.409 C 306.914 123.148,306.639 121.910,306.429 121.658 C 306.045 121.195,306.165 115.272,306.645 111.009 C 306.782 109.789,306.730 108.757,306.519 108.500 C 306.322 108.261,306.043 107.275,305.899 106.309 C 305.755 105.344,305.418 104.134,305.151 103.621 C 304.883 103.108,304.663 102.432,304.662 102.118 C 304.659 101.401,302.240 96.801,301.165 95.468 C 300.721 94.918,300.358 94.294,300.358 94.080 C 300.358 93.867,299.752 93.055,299.010 92.277 C 295.946 89.057,296.057 89.393,296.057 83.365 L 296.057 77.938 294.108 74.005 C 292.930 71.626,291.407 69.215,290.255 67.904 C 289.208 66.712,287.969 65.180,287.502 64.499 C 285.011 60.866,273.193 54.864,263.612 52.366 C 263.016 52.211,262.179 51.897,261.753 51.669 C 261.328 51.441,260.504 51.254,259.924 51.254 C 259.344 51.254,258.290 51.013,257.582 50.717 C 256.874 50.421,255.665 50.179,254.894 50.179 C 254.123 50.179,252.914 49.937,252.206 49.642 C 251.483 49.340,249.833 49.104,248.442 49.104 C 247.052 49.104,245.401 48.868,244.679 48.566 C 242.877 47.813,221.183 47.824,219.534 48.579 M243.604 48.925 C 244.320 49.224,245.973 49.462,247.332 49.462 C 248.675 49.462,250.228 49.650,250.783 49.880 C 251.338 50.110,252.760 50.417,253.943 50.563 C 259.959 51.308,276.812 57.221,280.287 59.807 C 280.780 60.174,282.374 61.263,283.831 62.226 C 285.402 63.266,286.853 64.562,287.400 65.412 C 287.907 66.201,289.081 67.668,290.008 68.674 C 290.936 69.679,292.472 72.018,293.421 73.871 L 295.148 77.240 295.334 83.411 L 295.520 89.583 297.347 91.476 C 298.352 92.517,299.553 94.014,300.016 94.803 C 300.479 95.591,300.967 96.317,301.100 96.416 C 301.654 96.825,303.905 101.794,304.593 104.122 C 306.523 110.659,306.545 110.798,305.937 112.500 C 305.192 114.583,305.179 120.339,305.914 122.098 C 306.210 122.806,306.452 124.024,306.452 124.804 C 306.452 125.598,306.926 127.304,307.527 128.674 C 308.118 130.021,308.602 131.302,308.602 131.519 C 308.602 134.276,314.699 141.990,319.416 145.200 C 324.946 148.963,323.538 154.263,316.384 156.615 C 312.293 157.960,311.744 160.574,315.061 162.908 C 317.894 164.901,317.753 166.899,314.668 168.473 C 312.703 169.475,312.845 170.467,315.131 171.700 C 319.272 173.933,319.427 174.765,316.327 178.143 L 314.015 180.662 313.883 185.761 C 313.611 196.206,312.358 197.355,301.358 197.242 C 297.478 197.202,294.353 197.013,293.944 196.794 C 292.555 196.051,281.633 196.318,279.111 197.157 C 276.065 198.171,272.352 201.789,270.439 205.608 C 265.281 215.904,266.804 237.378,273.308 246.057 C 273.751 246.649,274.529 247.963,275.037 248.979 C 275.546 249.994,276.612 251.576,277.407 252.495 C 278.202 253.414,278.853 254.312,278.853 254.490 C 278.853 254.669,279.579 255.632,280.466 256.631 C 281.353 257.630,282.079 258.612,282.079 258.815 C 282.079 259.017,282.917 260.069,283.941 261.151 C 284.965 262.234,286.134 263.663,286.539 264.327 C 287.305 265.582,290.578 269.070,299.836 278.500 C 307.037 285.833,307.987 288.143,304.876 290.744 C 303.721 291.709,301.660 290.819,298.566 288.021 C 295.609 285.346,276.993 274.909,275.183 274.911 C 274.935 274.911,273.199 274.206,271.326 273.344 C 269.453 272.483,267.034 271.412,265.950 270.966 C 263.262 269.859,249.625 265.259,247.849 264.860 C 245.086 264.238,242.103 263.491,240.863 263.109 C 240.174 262.897,238.864 262.724,237.951 262.724 C 237.038 262.724,235.605 262.482,234.767 262.186 C 232.951 261.546,218.252 261.404,216.654 262.012 C 215.779 262.345,213.578 262.885,209.319 263.813 C 208.432 264.006,206.864 264.562,205.834 265.048 C 204.805 265.534,203.542 266.037,203.028 266.166 C 202.515 266.295,201.341 266.761,200.420 267.203 C 194.290 270.142,189.874 270.068,188.556 267.004 C 187.664 264.931,187.623 255.118,188.494 251.971 C 190.775 243.727,193.597 238.101,200.930 227.172 C 204.014 222.577,206.626 218.575,206.734 218.280 C 206.843 217.984,207.499 216.855,208.191 215.771 C 212.758 208.624,214.331 204.178,214.334 198.412 C 214.338 191.846,213.266 189.075,210.389 188.213 C 206.305 186.989,194.226 180.182,191.219 177.409 C 190.430 176.682,189.059 175.594,188.172 174.990 C 186.171 173.629,181.114 168.473,179.656 166.308 C 179.059 165.421,178.135 164.292,177.603 163.799 C 176.619 162.887,173.347 158.111,172.269 156.013 C 171.943 155.378,171.260 154.249,170.750 153.505 C 169.450 151.605,167.420 147.518,166.611 145.171 C 163.966 137.507,163.162 134.382,162.368 128.674 C 161.966 125.784,161.962 110.563,162.362 107.885 C 162.768 105.175,163.692 100.348,163.990 99.384 C 164.290 98.412,162.485 96.416,161.305 96.416 C 159.507 96.416,157.706 94.259,157.706 92.105 C 157.706 85.694,144.441 89.130,141.064 96.416 C 139.933 98.856,139.679 109.824,140.677 113.115 C 140.971 114.083,141.213 115.300,141.215 115.820 C 141.219 116.751,142.937 122.497,144.684 127.419 C 145.174 128.799,145.707 130.412,145.869 131.004 C 146.031 131.595,146.584 132.925,147.096 133.959 C 147.609 134.993,148.029 136.064,148.029 136.339 C 148.029 136.614,151.904 144.615,156.640 154.118 C 161.376 163.622,165.558 172.228,165.932 173.243 C 166.305 174.259,167.174 176.565,167.862 178.369 C 170.226 184.567,172.996 193.936,173.488 197.398 C 173.663 198.629,173.974 199.949,174.179 200.332 C 174.384 200.715,174.552 201.664,174.552 202.440 C 174.552 203.217,174.794 204.538,175.090 205.376 C 175.385 206.214,175.627 208.014,175.627 209.376 C 175.627 210.765,175.863 212.415,176.165 213.138 C 176.610 214.202,176.703 216.699,176.703 227.597 C 176.703 238.390,176.605 241.045,176.165 242.294 C 175.869 243.132,175.625 244.644,175.622 245.654 C 175.619 246.665,175.384 248.136,175.100 248.925 C 174.816 249.713,174.576 250.909,174.568 251.581 C 174.517 255.537,168.422 271.511,165.536 275.255 C 164.304 276.853,163.133 278.633,162.344 280.108 C 160.926 282.759,158.971 285.701,157.437 287.492 C 156.599 288.471,155.914 289.427,155.914 289.617 C 155.914 289.807,155.370 290.567,154.705 291.307 C 154.040 292.047,153.063 293.297,152.535 294.086 C 152.007 294.875,148.478 298.640,144.694 302.454 C 138.497 308.699,136.356 310.542,132.820 312.669 C 132.215 313.032,131.398 313.620,131.004 313.974 C 129.074 315.710,121.831 318.756,116.487 320.080 C 115.600 320.300,114.127 320.710,113.214 320.992 C 110.747 321.754,91.316 321.734,89.482 320.968 C 88.774 320.672,87.781 320.430,87.276 320.430 C 86.770 320.430,85.595 320.049,84.666 319.583 C 83.736 319.117,82.341 318.530,81.566 318.279 C 80.334 317.880,78.874 317.001,74.061 313.761 C 69.704 310.828,63.498 301.916,60.447 294.209 C 59.927 292.896,58.936 290.642,58.245 289.201 C 56.369 285.285,56.618 282.790,58.884 282.801 C 60.363 282.808,60.427 282.853,64.176 286.518 C 67.372 289.642,72.061 292.473,74.040 292.473 C 74.469 292.473,75.506 292.715,76.344 293.011 C 85.463 296.228,98.563 289.120,101.990 279.095 C 104.025 273.142,104.167 263.909,102.335 256.631 C 102.012 255.349,101.573 253.520,101.358 252.566 C 100.913 250.588,95.142 233.450,93.917 230.466 C 93.472 229.382,92.499 227.124,91.756 225.448 C 90.194 221.926,89.131 219.339,87.997 216.308 C 87.555 215.125,86.607 212.953,85.891 211.480 C 85.174 210.007,84.588 208.592,84.588 208.335 C 84.588 208.079,83.965 206.623,83.204 205.100 C 82.443 203.576,81.614 201.685,81.362 200.896 C 81.111 200.108,80.364 198.381,79.703 197.059 C 79.042 195.737,78.017 193.197,77.425 191.413 C 76.832 189.630,76.047 187.486,75.679 186.648 C 74.365 183.651,72.105 177.545,71.202 174.552 C 68.538 165.720,68.116 164.206,67.906 162.724 C 67.781 161.837,67.521 160.594,67.329 159.962 C 67.137 159.329,66.829 157.555,66.645 156.019 C 66.461 154.483,66.160 152.339,65.977 151.254 C 65.521 148.557,65.535 133.533,65.995 131.541 C 66.200 130.654,66.500 128.366,66.661 126.457 C 66.822 124.547,67.079 122.783,67.232 122.536 C 67.385 122.289,67.715 120.947,67.966 119.556 C 69.712 109.874,74.969 96.359,79.545 89.785 C 80.369 88.602,81.583 86.828,82.243 85.842 C 84.330 82.728,93.064 74.430,95.583 73.168 C 96.801 72.558,97.901 71.892,98.027 71.687 C 98.451 71.002,100.860 70.000,106.452 68.184 C 114.463 65.582,114.736 65.524,120.251 65.264 C 123.057 65.132,125.614 64.836,126.052 64.593 C 127.139 63.988,130.834 64.048,132.382 64.695 C 133.281 65.071,134.954 65.233,137.938 65.233 C 140.921 65.233,142.594 65.395,143.493 65.771 C 144.201 66.066,145.632 66.311,146.673 66.315 C 147.841 66.320,149.726 66.731,151.596 67.391 C 153.262 67.978,154.999 68.459,155.457 68.459 C 155.914 68.459,157.554 69.095,159.101 69.873 C 165.614 73.148,167.318 73.346,169.404 71.073 L 170.953 69.387 172.663 70.000 C 173.603 70.337,175.365 70.612,176.577 70.611 L 178.781 70.609 184.104 65.445 C 191.789 57.988,199.729 53.315,207.583 51.628 C 209.847 51.141,212.140 50.546,213.978 49.967 C 214.866 49.687,216.478 49.447,217.563 49.433 C 218.647 49.419,220.099 49.190,220.789 48.925 C 222.712 48.184,241.831 48.184,243.604 48.925 " stroke="none" fill="#acacab" fill-rule="evenodd"></path><path id="path4" d="M226.971 48.655 C 229.879 48.715,234.637 48.715,237.545 48.655 C 240.453 48.595,238.073 48.546,232.258 48.546 C 226.443 48.546,224.064 48.595,226.971 48.655 M215.860 49.719 C 216.402 49.801,217.289 49.801,217.832 49.719 C 218.374 49.637,217.930 49.570,216.846 49.570 C 215.762 49.570,215.318 49.637,215.860 49.719 M246.497 49.721 C 247.134 49.800,248.263 49.802,249.006 49.724 C 249.750 49.646,249.229 49.582,247.849 49.580 C 246.470 49.578,245.861 49.642,246.497 49.721 M253.674 50.791 C 254.117 50.876,254.843 50.876,255.287 50.791 C 255.730 50.705,255.367 50.635,254.480 50.635 C 253.593 50.635,253.230 50.705,253.674 50.791 M289.964 68.996 C 290.633 69.686,291.261 70.251,291.359 70.251 C 291.458 70.251,290.991 69.686,290.323 68.996 C 289.654 68.306,289.026 67.742,288.927 67.742 C 288.829 67.742,289.295 68.306,289.964 68.996 M170.038 70.341 C 169.360 71.140,169.361 71.142,170.072 70.557 C 170.466 70.232,171.111 69.888,171.505 69.792 C 172.195 69.624,172.194 69.616,171.471 69.576 C 171.058 69.553,170.413 69.897,170.038 70.341 M175.358 70.866 C 175.901 70.948,176.788 70.948,177.330 70.866 C 177.872 70.784,177.428 70.717,176.344 70.717 C 175.260 70.717,174.816 70.784,175.358 70.866 M89.599 78.047 L 86.201 81.541 89.695 78.143 C 91.617 76.274,93.190 74.702,93.190 74.649 C 93.190 74.389,92.755 74.801,89.599 78.047 M84.229 83.333 C 83.359 84.220,82.727 84.946,82.826 84.946 C 82.924 84.946,83.717 84.220,84.588 83.333 C 85.458 82.446,86.090 81.720,85.992 81.720 C 85.893 81.720,85.100 82.446,84.229 83.333 M80.406 88.441 C 80.068 88.983,79.621 89.659,79.412 89.943 C 79.136 90.319,79.144 90.393,79.444 90.213 C 79.880 89.952,81.450 87.455,81.179 87.455 C 81.092 87.455,80.744 87.899,80.406 88.441 M297.476 91.846 C 298.355 92.782,299.121 93.548,299.179 93.548 C 299.448 93.548,299.163 93.227,297.581 91.741 L 295.878 90.143 297.476 91.846 M162.163 118.280 C 162.163 123.306,162.213 125.363,162.275 122.849 C 162.337 120.336,162.337 116.223,162.275 113.710 C 162.213 111.196,162.163 113.253,162.163 118.280 M67.825 120.430 C 67.825 121.120,67.899 121.402,67.989 121.057 C 68.079 120.712,68.079 120.148,67.989 119.803 C 67.899 119.458,67.825 119.740,67.825 120.430 M66.784 126.703 C 66.786 128.082,66.851 128.603,66.928 127.859 C 67.006 127.116,67.005 125.987,66.925 125.350 C 66.846 124.714,66.783 125.323,66.784 126.703 M65.746 141.219 C 65.746 146.048,65.797 148.024,65.859 145.609 C 65.921 143.194,65.921 139.243,65.859 136.828 C 65.797 134.413,65.746 136.389,65.746 141.219 M312.903 139.606 C 313.572 140.296,314.200 140.860,314.298 140.860 C 314.397 140.860,313.930 140.296,313.262 139.606 C 312.593 138.916,311.965 138.351,311.867 138.351 C 311.768 138.351,312.234 138.916,312.903 139.606 M315.771 142.406 C 315.771 142.468,316.295 142.992,316.935 143.571 L 318.100 144.624 317.048 143.459 C 316.066 142.373,315.771 142.129,315.771 142.406 M66.769 156.093 C 66.772 157.079,66.841 157.440,66.924 156.895 C 67.006 156.350,67.004 155.543,66.919 155.103 C 66.834 154.662,66.766 155.108,66.769 156.093 M67.825 162.007 C 67.825 162.697,67.899 162.979,67.989 162.634 C 68.079 162.289,68.079 161.725,67.989 161.380 C 67.899 161.035,67.825 161.317,67.825 162.007 M183.871 171.147 C 185.736 173.020,187.342 174.552,187.441 174.552 C 187.540 174.552,186.094 173.020,184.229 171.147 C 182.364 169.274,180.758 167.742,180.659 167.742 C 180.561 167.742,182.006 169.274,183.871 171.147 M284.157 196.324 C 285.793 196.391,288.373 196.390,289.892 196.323 C 291.410 196.256,290.072 196.202,286.918 196.202 C 283.763 196.203,282.521 196.258,284.157 196.324 M301.703 197.395 C 302.540 197.471,303.911 197.471,304.749 197.395 C 305.587 197.320,304.901 197.258,303.226 197.258 C 301.550 197.258,300.865 197.320,301.703 197.395 M214.420 198.566 C 214.420 199.256,214.494 199.539,214.584 199.194 C 214.674 198.849,214.674 198.284,214.584 197.939 C 214.494 197.594,214.420 197.876,214.420 198.566 M274.194 200.179 C 273.323 201.066,272.691 201.792,272.790 201.792 C 272.888 201.792,273.681 201.066,274.552 200.179 C 275.423 199.292,276.054 198.566,275.956 198.566 C 275.857 198.566,275.064 199.292,274.194 200.179 M267.491 215.771 C 267.491 216.855,267.558 217.298,267.640 216.756 C 267.722 216.214,267.722 215.327,267.640 214.785 C 267.558 214.243,267.491 214.686,267.491 215.771 M267.519 228.674 C 267.519 230.941,267.577 231.868,267.648 230.735 C 267.720 229.601,267.720 227.746,267.648 226.613 C 267.577 225.479,267.519 226.407,267.519 228.674 M103.323 261.290 C 103.323 262.177,103.393 262.540,103.479 262.097 C 103.564 261.653,103.564 260.927,103.479 260.484 C 103.393 260.040,103.323 260.403,103.323 261.290 M283.871 261.402 C 283.871 261.464,284.395 261.988,285.036 262.567 L 286.201 263.620 285.148 262.455 C 284.167 261.369,283.871 261.126,283.871 261.402 M290.666 269.265 C 292.151 270.848,292.473 271.132,292.473 270.863 C 292.473 270.806,291.707 270.040,290.771 269.161 L 289.068 267.563 290.666 269.265 M99.264 284.498 L 98.029 285.842 99.373 284.607 C 100.624 283.457,100.882 283.154,100.608 283.154 C 100.548 283.154,99.943 283.759,99.264 284.498 M154.279 291.487 L 153.226 292.652 154.391 291.600 C 155.477 290.618,155.720 290.323,155.443 290.323 C 155.382 290.323,154.858 290.847,154.279 291.487 M80.207 293.811 C 81.050 293.887,82.340 293.886,83.074 293.809 C 83.808 293.732,83.118 293.670,81.541 293.671 C 79.964 293.673,79.364 293.736,80.207 293.811 M150.342 296.505 L 148.925 298.029 150.448 296.612 C 151.865 295.294,152.136 294.982,151.865 294.982 C 151.806 294.982,151.121 295.668,150.342 296.505 " stroke="none" fill="#959494" fill-rule="evenodd"></path></g></svg>